<svg width="24" height="24" viewBox="0 0 24 24" fill="none" xmlns="http://www.w3.org/2000/svg">
<path d="M16.3775 17.421H4.08352C3.71297 17.4209 3.35764 17.2736 3.09566 17.0115C2.83369 16.7494 2.68652 16.3941 2.68652 16.0235V4.147C2.68652 3.77649 2.83371 3.42116 3.0957 3.15917C3.35768 2.89718 3.71302 2.75 4.08352 2.75H11.2655L16.3775 17.421Z" stroke="white" stroke-linecap="round" stroke-linejoin="round"/>
<path d="M12.6 6.57941H19.9165C20.287 6.57954 20.6422 6.72677 20.9042 6.98873C21.1661 7.25069 21.3134 7.60595 21.3135 7.97641V19.8529C21.3135 20.2234 21.1663 20.5788 20.9043 20.8407C20.6423 21.1027 20.287 21.2499 19.9165 21.2499H12.7345M12.7345 21.2499L11.4 17.4204M12.7345 21.2499L16.3775 17.4209M8.02199 5.53491C8.54712 5.53491 9.05074 5.74352 9.42206 6.11484C9.79339 6.48616 10.002 6.98978 10.002 7.51491V9.96291C10.002 10.2229 9.95078 10.4804 9.85127 10.7206C9.75177 10.9609 9.60592 11.1791 9.42206 11.363C9.2382 11.5468 9.01993 11.6927 8.77971 11.7922C8.53948 11.8917 8.28201 11.9429 8.02199 11.9429C7.76198 11.9429 7.5045 11.8917 7.26428 11.7922C7.02405 11.6927 6.80578 11.5468 6.62192 11.363C6.43806 11.1791 6.29222 10.9609 6.19271 10.7206C6.09321 10.4804 6.04199 10.2229 6.04199 9.96291V7.51541C6.04199 6.99028 6.2506 6.48666 6.62192 6.11534C6.99324 5.74402 7.49686 5.53541 8.02199 5.53541" stroke="white" stroke-linecap="round" stroke-linejoin="round"/>
<path d="M4.70099 10.5525C4.84987 11.3242 5.26281 12.0199 5.86889 12.5202C6.47496 13.0205 7.23634 13.2942 8.02224 13.2942M8.02224 13.2942C8.80814 13.2942 9.56952 13.0205 10.1756 12.5202C10.7817 12.0199 11.1946 11.3242 11.3435 10.5525M8.02224 13.2942L8.02199 14.9625M13.9845 10.5525H19.6095M15.692 15.452H19.6095M14.8655 13.0025H19.6095" stroke="white" stroke-linecap="round" stroke-linejoin="round"/>
</svg>
