<svg width="24" height="24" viewBox="0 0 24 24" fill="none" xmlns="http://www.w3.org/2000/svg">
<path d="M3.34205 15.65L1.83105 14.189C1.61772 13.989 1.51439 13.7457 1.52105 13.459C1.52772 13.1737 1.63739 12.9247 1.85005 12.712C3.15005 11.3853 4.70305 10.3517 6.50905 9.611C8.31505 8.87033 10.1444 8.5 11.9971 8.5C13.8497 8.5 15.6794 8.87 17.4861 9.61C19.2914 10.3507 20.8461 11.3847 22.1501 12.712C22.3634 12.9247 22.4731 13.174 22.4791 13.46C22.4857 13.7453 22.3824 13.988 22.1691 14.188L20.6581 15.65C20.4361 15.8593 20.1947 15.9787 19.9341 16.008C19.6727 16.0373 19.4294 15.9707 19.2041 15.808L17.0731 14.185C16.8757 14.0337 16.7311 13.8717 16.6391 13.699C16.5471 13.5263 16.5007 13.332 16.5001 13.116V10.323C15.6867 10.0337 14.9277 9.824 14.2231 9.694C13.5184 9.56467 12.7774 9.5 12.0001 9.5C11.2227 9.5 10.4817 9.56467 9.77706 9.694C9.07239 9.82333 8.31339 10.033 7.50005 10.323V13.116C7.50005 13.3313 7.45372 13.5257 7.36105 13.699C7.26839 13.8723 7.12372 14.0343 6.92705 14.185L4.79706 15.808C4.57039 15.9707 4.32705 16.0373 4.06705 16.008C3.80572 15.9787 3.56405 15.8593 3.34205 15.65ZM6.50005 10.68C5.78605 11.0073 5.09506 11.4007 4.42706 11.86C3.75906 12.32 3.18339 12.782 2.70006 13.246C2.63606 13.31 2.60406 13.3743 2.60406 13.439C2.60406 13.503 2.63606 13.567 2.70006 13.631L3.89206 14.804C3.95672 14.868 4.03672 14.9097 4.13206 14.929C4.22872 14.9483 4.31539 14.926 4.39206 14.862L6.26905 13.442C6.33372 13.3913 6.38839 13.3273 6.43305 13.25C6.47772 13.1727 6.50005 13.1023 6.50005 13.039V10.68ZM17.5001 10.692V13.039C17.5001 13.103 17.5224 13.1733 17.5671 13.25C17.6117 13.3267 17.6664 13.3907 17.7311 13.442L19.6081 14.862C19.6847 14.926 19.7714 14.9483 19.8681 14.929C19.9634 14.9097 20.0434 14.868 20.1081 14.804L21.3001 13.642C21.3641 13.578 21.3961 13.514 21.3961 13.45C21.3961 13.386 21.3641 13.322 21.3001 13.258C20.8167 12.786 20.2411 12.3213 19.5731 11.864C18.9051 11.406 18.2141 11.0153 17.5001 10.692Z" fill="#FFFBFB"/>
</svg>
