<svg width="24" height="24" viewBox="0 0 24 24" fill="none" xmlns="http://www.w3.org/2000/svg">
<path d="M18 10.4801V6.00006C18 4.90006 17.1 4.00006 16 4.00006H6.83001L8.83001 6.00006H16V13.1701L18 15.1701V13.5201L22 17.5001V6.50006L18 10.4801ZM16 16.0001L6.00001 6.00006L4.00001 4.00006L2.81001 2.81006L1.39001 4.22006L2.24001 5.07006C2.09001 5.35006 2.00001 5.66006 2.00001 6.00006V18.0001C2.00001 19.1001 2.90001 20.0001 4.00001 20.0001H16C16.34 20.0001 16.65 19.9101 16.93 19.7601L19.78 22.6101L21.19 21.2001L18 18.0001L16 16.0001ZM4.00001 18.0001V6.83006L15.17 18.0001H4.00001Z" fill="#60150F"/>
</svg>
