<svg width="16" height="16" viewBox="0 0 16 16" fill="none" xmlns="http://www.w3.org/2000/svg">
<path d="M7 3.99998C7 3.86098 7 3.79098 7.008 3.73298C7.0336 3.55001 7.11812 3.38037 7.24876 3.24973C7.37939 3.1191 7.54904 3.03458 7.732 3.00898C7.791 3.00098 7.86 3.00098 7.999 3.00098C8.138 3.00098 8.209 3.00098 8.266 3.00898C8.44896 3.03458 8.61861 3.1191 8.74924 3.24973C8.87988 3.38037 8.9644 3.55001 8.99 3.73298C8.998 3.79098 8.998 3.86098 8.998 3.99998C8.998 4.13898 8.998 4.20898 8.99 4.26698C8.9644 4.44994 8.87988 4.61958 8.74924 4.75022C8.61861 4.88086 8.44896 4.96537 8.266 4.99098C8.208 4.99898 8.138 4.99898 7.999 4.99898C7.86 4.99898 7.79 4.99898 7.732 4.99098C7.54904 4.96537 7.37939 4.88086 7.24876 4.75022C7.11812 4.61958 7.0336 4.44994 7.008 4.26698C7 4.20898 7 4.13898 7 3.99998ZM7 7.99998C7 7.86098 7 7.79098 7.008 7.73298C7.0336 7.55001 7.11812 7.38037 7.24876 7.24973C7.37939 7.1191 7.54904 7.03458 7.732 7.00898C7.791 7.00098 7.86 7.00098 7.999 7.00098C8.138 7.00098 8.209 7.00098 8.266 7.00898C8.44896 7.03458 8.61861 7.1191 8.74924 7.24973C8.87988 7.38037 8.9644 7.55001 8.99 7.73298C8.998 7.79098 8.998 7.86098 8.998 7.99998C8.998 8.13898 8.998 8.20898 8.99 8.26698C8.9644 8.44994 8.87988 8.61958 8.74924 8.75022C8.61861 8.88086 8.44896 8.96537 8.266 8.99098C8.208 8.99898 8.138 8.99898 7.999 8.99898C7.86 8.99898 7.79 8.99898 7.732 8.99098C7.54904 8.96537 7.37939 8.88086 7.24876 8.75022C7.11812 8.61958 7.0336 8.44994 7.008 8.26698C7 8.20898 7 8.13898 7 7.99998ZM7 12C7 11.861 7 11.791 7.008 11.733C7.0336 11.55 7.11812 11.3804 7.24876 11.2497C7.37939 11.1191 7.54904 11.0346 7.732 11.009C7.791 11.001 7.86 11.001 7.999 11.001C8.138 11.001 8.209 11.001 8.266 11.009C8.44896 11.0346 8.61861 11.1191 8.74924 11.2497C8.87988 11.3804 8.9644 11.55 8.99 11.733C8.998 11.791 8.998 11.861 8.998 12C8.998 12.139 8.998 12.209 8.99 12.268C8.9644 12.4509 8.87988 12.6206 8.74924 12.7512C8.61861 12.8819 8.44896 12.9664 8.266 12.992C8.208 13 8.138 13 8 13C7.862 13 7.791 13 7.733 12.992C7.55003 12.9664 7.38039 12.8819 7.24976 12.7512C7.11912 12.6206 7.0346 12.4509 7.009 12.268C7 12.21 7 12.14 7 12Z" fill="#E3E3E3"/>
</svg>
