<svg width="24" height="24" viewBox="0 0 24 24" fill="none" xmlns="http://www.w3.org/2000/svg">
<path d="M1.99799 21V19H3.99799V4.835C3.99795 4.60081 4.08011 4.37403 4.23015 4.19421C4.38018 4.01438 4.58857 3.89292 4.81899 3.851L14.291 2.129C14.3774 2.11334 14.4662 2.11684 14.5511 2.13925C14.636 2.16167 14.715 2.20245 14.7824 2.25872C14.8498 2.31499 14.9041 2.38538 14.9413 2.46491C14.9786 2.54444 14.9979 2.63118 14.998 2.719V3.999L18.998 4C19.2632 4 19.5176 4.10536 19.7051 4.2929C19.8926 4.48043 19.998 4.73479 19.998 5V19H21.998V21H17.998V6H14.998V21H1.99799ZM12.998 4.397L5.99799 5.669V19H12.998V4.397ZM11.998 11V13H9.99799V11H11.998Z" fill="#202124"/>
</svg>
