<svg width="24" height="24" viewBox="0 0 24 24" fill="none" xmlns="http://www.w3.org/2000/svg">
<path d="M12 1L6 11H18L12 1ZM12 4.887L14.468 9H9.532L12 4.887ZM6.75 20C6.02065 20 5.32118 19.7103 4.80546 19.1945C4.28973 18.6788 4 17.9793 4 17.25C4 16.5207 4.28973 15.8212 4.80546 15.3055C5.32118 14.7897 6.02065 14.5 6.75 14.5C7.47935 14.5 8.17882 14.7897 8.69454 15.3055C9.21027 15.8212 9.5 16.5207 9.5 17.25C9.5 17.9793 9.21027 18.6788 8.69454 19.1945C8.17882 19.7103 7.47935 20 6.75 20ZM6.75 22C8.00978 22 9.21796 21.4996 10.1088 20.6088C10.9996 19.718 11.5 18.5098 11.5 17.25C11.5 15.9902 10.9996 14.782 10.1088 13.8912C9.21796 13.0004 8.00978 12.5 6.75 12.5C5.49022 12.5 4.28204 13.0004 3.39124 13.8912C2.50044 14.782 2 15.9902 2 17.25C2 18.5098 2.50044 19.718 3.39124 20.6088C4.28204 21.4996 5.49022 22 6.75 22ZM15 15.5V19.5H19V15.5H15ZM13 21.5V13.5H21V21.5H13Z" fill="white"/>
</svg>
